<?xml version="1.0" encoding="UTF-8"?>
<svg version="1.1" xmlns="http://www.w3.org/2000/svg" width="282" height="281">
<path d="M0 0 C1.31637451 0.00491455 2.63274902 0.0098291 3.98901367 0.01489258 C14.04988257 0.13548201 23.54274589 0.92741815 33.3125 3.3125 C33.98925781 3.4681543 34.66601562 3.62380859 35.36328125 3.78417969 C57.10087742 8.91155053 76.31433346 20.07545696 93.3125 34.3125 C94.02277344 34.89902344 94.73304688 35.48554687 95.46484375 36.08984375 C100.23905778 40.1309731 104.35763592 44.47246101 108.3125 49.3125 C109.45525391 50.68148437 109.45525391 50.68148437 110.62109375 52.078125 C133.93963204 81.03531139 144.6912405 118.61104998 140.8125 155.5546875 C136.50261065 191.07862392 120.4324057 225.3651522 92.3125 248.3125 C90.90871094 249.47265625 90.90871094 249.47265625 89.4765625 250.65625 C64.17435636 271.11275836 33.0994468 281.76927512 0.625 281.625 C-0.69137451 281.62008545 -2.00774902 281.6151709 -3.36401367 281.61010742 C-13.42488257 281.48951799 -22.91774589 280.69758185 -32.6875 278.3125 C-33.70263672 278.07901855 -33.70263672 278.07901855 -34.73828125 277.84082031 C-56.51041869 272.70530202 -75.63058822 261.51668786 -92.6875 247.3125 C-93.32429688 246.79945313 -93.96109375 246.28640625 -94.6171875 245.7578125 C-99.16010901 242.02252148 -102.93416488 237.8295007 -106.6875 233.3125 C-107.30367187 232.59578125 -107.91984375 231.8790625 -108.5546875 231.140625 C-132.23861994 202.79599903 -143.69936559 165.51822516 -140.46044922 128.73388672 C-136.63788849 92.22742049 -120.55613961 56.87085474 -91.6875 33.3125 C-90.75164062 32.5390625 -89.81578125 31.765625 -88.8515625 30.96875 C-63.54935636 10.51224164 -32.4744468 -0.14427512 0 0 Z " fill="#F6F6F6" transform="translate(140.6875,-0.3125)"/>
<path d="M0 0 C-0.33 2.97 -0.66 5.94 -1 9 C-0.39671875 8.51789062 0.2065625 8.03578125 0.828125 7.5390625 C2.02695313 6.59160156 2.02695313 6.59160156 3.25 5.625 C4.03890625 4.99851562 4.8278125 4.37203125 5.640625 3.7265625 C9.87214035 0.62999001 12.45873039 -0.25098261 17.75 -0.125 C19.22726563 -0.09792969 19.22726563 -0.09792969 20.734375 -0.0703125 C21.85585937 -0.03550781 21.85585937 -0.03550781 23 0 C18.36805007 6.9479249 11.62269652 8.87367312 3.98828125 11.2734375 C1.62942498 12.13541641 -0.14767427 13.30874607 -2 15 C-1.38511719 15.12117188 -0.77023438 15.24234375 -0.13671875 15.3671875 C1.07564453 15.61855469 1.07564453 15.61855469 2.3125 15.875 C3.11300781 16.03742187 3.91351563 16.19984375 4.73828125 16.3671875 C7 17 7 17 10 19 C10 19.66 10 20.32 10 21 C3.99537783 23.39253937 -1.27048652 23.03551934 -7.63671875 22.77734375 C-11.3083282 22.64947557 -11.3083282 22.64947557 -14 26 C-11.03 26.33 -8.06 26.66 -5 27 C-5 28.32 -5 29.64 -5 31 C-14.38097378 35.13301099 -14.38097378 35.13301099 -19.5 35.5 C-21.2325 35.7475 -21.2325 35.7475 -23 36 C-24.5899433 37.92064793 -24.5899433 37.92064793 -25 40 C-24.01 39.505 -24.01 39.505 -23 39 C-20.3276379 38.86584528 -17.67749512 38.95681459 -15 39 C-16.51605078 43.09333711 -19.3111775 45.7987271 -23 48 C-24.71627344 48.50447229 -26.44721323 48.96088797 -28.1875 49.375 C-31.77556098 50.2418128 -31.77556098 50.2418128 -34.30859375 52.73828125 C-35.25564447 54.87365419 -35.25564447 54.87365419 -36 58 C-35.13375 57.34 -34.2675 56.68 -33.375 56 C-29.78576537 53.87304615 -28.07305202 53.61209028 -24 54 C-25.35472306 59.58823264 -29.58113173 62.69001754 -34 66 C-35.31464089 66.70280975 -36.6432185 67.38245147 -38 68 C-38 69.65 -38 71.3 -38 73 C-37.071875 72.34 -36.14375 71.68 -35.1875 71 C-32 69 -32 69 -29 69 C-29.5638932 72.88536171 -30.66689444 75.45224086 -32.875 78.6875 C-33.38804688 79.45449219 -33.90109375 80.22148438 -34.4296875 81.01171875 C-36 83 -36 83 -39 85 C-39.25015873 88.58357241 -39.25015873 88.58357241 -39 92 C-38.59007812 91.4946875 -38.18015625 90.989375 -37.7578125 90.46875 C-37.21898438 89.8190625 -36.68015625 89.169375 -36.125 88.5 C-35.59132813 87.8503125 -35.05765625 87.200625 -34.5078125 86.53125 C-34.01023437 86.0259375 -33.51265625 85.520625 -33 85 C-32.34 85 -31.68 85 -31 85 C-31.14195492 91.41378157 -31.80890864 95.41878746 -35.921875 100.39453125 C-37.5919335 102.88146619 -37.35167903 105.11623195 -37 108 C-36.34 108 -35.68 108 -35 108 C-34.7525 107.05125 -34.505 106.1025 -34.25 105.125 C-33 102 -33 102 -30.875 100.625 C-29.946875 100.315625 -29.946875 100.315625 -29 100 C-27.47728009 101.52271991 -27.79418018 102.87935159 -27.75 105 C-27.77114728 109.42683059 -28.86561087 112.87527008 -30.39453125 116.98828125 C-31.43795001 120.45512423 -30.56020074 122.87959853 -29 126 C-28.731875 124.741875 -28.46375 123.48375 -28.1875 122.1875 C-27.40467463 119.00551199 -26.74664072 116.99755689 -24 115 C-20.89025827 120.11524097 -20.67206317 123.85550513 -20.9375 129.625 C-21.3770198 136.1123788 -21.3770198 136.1123788 -19 142 C-18.34 142 -17.68 142 -17 142 C-17.33 141.34 -17.66 140.68 -18 140 C-18.23188406 132.69565217 -18.23188406 132.69565217 -17 129 C-14 130 -14 130 -12.36328125 132.08984375 C-10.19884467 136.71020264 -10.26250653 141.46566544 -9.91796875 146.50390625 C-9.30323105 150.25834538 -9.30323105 150.25834538 -5.92578125 152.46484375 C-4.96027344 152.97144531 -3.99476562 153.47804687 -3 154 C-3.32742187 153.43796875 -3.65484375 152.8759375 -3.9921875 152.296875 C-5.11785494 149.73140036 -5.2068111 148.03157723 -5.125 145.25 C-5.10695312 144.45078125 -5.08890625 143.6515625 -5.0703125 142.828125 C-5.04710937 142.22484375 -5.02390625 141.6215625 -5 141 C0.53324965 143.40166581 3.06835355 147.73743004 5.3125 153.1875 C6 156 6 156 6 160 C7.98 160.33 9.96 160.66 12 161 C11.505 160.29875 11.01 159.5975 10.5 158.875 C8.8063319 155.62880281 8.74837685 153.60659844 9 150 C14.61128081 151.3603105 17.65011181 155.59434136 21 160 C21.36609375 160.85207031 21.7321875 161.70414063 22.109375 162.58203125 C25.10860121 166.4178185 29.01496834 166.83121925 33.625 167.875 C34.48996094 168.09929687 35.35492188 168.32359375 36.24609375 168.5546875 C45.1644547 170.69402446 52.6067996 169.30873505 61.3125 166.9375 C65.30153908 165.85907877 68.82102961 165 73 165 C73.08765625 164.27296875 73.1753125 163.5459375 73.265625 162.796875 C74.14187243 159.45967736 75.46211941 157.81311435 77.75 155.25 C78.42546875 154.47140625 79.1009375 153.6928125 79.796875 152.890625 C82.25144747 150.78421884 83.82318599 150.33323224 87 150 C86.48964169 154.3890815 85.47785723 157.33708062 83 161 C86.00571856 160.61147442 86.00571856 160.61147442 89 159 C90.051485 155.64633504 90.051485 155.64633504 90.453125 153.234375 C91.409867 149.32540053 93.41998155 146.06377191 96 143 C98.8125 141.5 98.8125 141.5 101 141 C101.14285714 149.57142857 101.14285714 149.57142857 100 153 C102.07611239 151.83884639 102.07611239 151.83884639 104 150 C104.51519988 147.60528768 104.51519988 147.60528768 104.4375 144.9375 C104.75153823 138.73937713 106.89023092 134.29004999 110 129 C110.66 129 111.32 129 112 129 C113.26237731 131.52475462 113.09856404 133.31200466 113.0625 136.125 C113.05347656 137.03507813 113.04445312 137.94515625 113.03515625 138.8828125 C113.01775391 139.93082031 113.01775391 139.93082031 113 141 C113.66 141 114.32 141 115 141 C117.42803038 137.29839896 116.95770891 134.54289512 116.4375 130.25 C115.87827922 124.16211927 116.2805412 120.43891761 119 115 C122.08089673 117.77280706 123.68775452 120.06326356 125 124 C126.03106293 119.80134292 126.03106293 119.80134292 125.03125 115.71875 C123.76981872 112.39315846 123.80338197 109.73259239 123.875 106.1875 C123.89304688 105.02605469 123.91109375 103.86460937 123.9296875 102.66796875 C123.95289063 101.78753906 123.97609375 100.90710938 124 100 C128.18189449 101.77989724 129.19368173 103.84546798 131 108 C131.96962166 105.3819269 131.96962166 105.3819269 132 102 C131.00163855 100.07789736 131.00163855 100.07789736 129.625 98.1875 C126.6386159 93.91060089 126.13084902 90.13879777 126 85 C129.32759923 86.55194754 131.48580485 88.30621949 134 91 C134.58939897 88.29799579 134.58939897 88.29799579 134 85 C132.54217357 83.29162958 132.54217357 83.29162958 130.6875 81.6875 C126.59791926 77.99528743 125.25660011 74.27772048 124 69 C128.40114397 69.50298788 130.71195019 71.08772731 134 74 C134 72.02 134 70.04 134 68 C133.01 67.7215625 133.01 67.7215625 132 67.4375 C126.50310415 64.80357074 121.95883199 61.1973233 119.5 55.5625 C119.335 54.716875 119.17 53.87125 119 53 C123.75481646 53.57634139 126.97048212 55.55068521 131 58 C130.23795048 55.11509824 129.7598421 53.34117132 128 51 C125.58465586 50.00130579 123.19578534 49.47274944 120.65234375 48.87890625 C116.26625897 47.42549082 112.99405186 44.47075845 110 41 C110 40.34 110 39.68 110 39 C114.54805635 38.82164485 117.8794254 39.00214565 122 41 C121.505 40.38125 121.01 39.7625 120.5 39.125 C119 37 119 37 119 35 C118.3709375 35.04640625 117.741875 35.0928125 117.09375 35.140625 C110.87851254 35.40271333 106.11011796 34.74491488 101 31 C100.01 29.515 100.01 29.515 99 28 C100.66342837 26.33657163 102.7825709 26.63951903 105.0625 26.4375 C106.44115234 26.31181641 106.44115234 26.31181641 107.84765625 26.18359375 C108.55792969 26.12300781 109.26820313 26.06242187 110 26 C109.01 25.34 108.02 24.68 107 24 C107 23.34 107 22.68 107 22 C106.20916016 22.23976563 106.20916016 22.23976563 105.40234375 22.484375 C102.42109336 23.12425313 99.61119088 23.20770602 96.5625 23.25 C94.89380859 23.28867188 94.89380859 23.28867188 93.19140625 23.328125 C89.69563662 22.96870683 87.83721976 22.01522151 85 20 C87.34591852 17.2289312 89.14776201 16.47940716 92.6875 15.8125 C93.49574219 15.65394531 94.30398437 15.49539062 95.13671875 15.33203125 C95.75160156 15.22246094 96.36648437 15.11289062 97 15 C92.90523059 12.45214348 89.08834833 10.631244 84.5 9.125 C79.20811502 7.29291292 75.94848252 4.94848252 72 1 C72 0.67 72 0.34 72 0 C80.36579057 -0.61714848 85.70452753 0.55328927 92.2734375 5.82421875 C94.22340778 7.510772 96.12806017 9.22763144 98 11 C97.505 10.113125 97.01 9.22625 96.5 8.3125 C95.05621326 5.12413762 94.69840078 3.41812454 95 0 C100.55893278 1.34762007 104.02715702 5.32396573 107 10 C107.7459121 12.59515252 108.16564656 15.01739048 108.41796875 17.703125 C108.95234444 20.63467812 108.95234444 20.63467812 113 24 C112.67 19.71 112.34 15.42 112 11 C116.33179266 13.16589633 118.11640944 15.18119088 121 19 C122.36196175 23.08588524 121.92218038 26.8176598 121.7421875 31.08984375 C121.78138211 34.44054183 121.78138211 34.44054183 125 38 C125.66 34.04 126.32 30.08 127 26 C127.66 26 128.32 26 129 26 C133.98479458 33.69082592 134.63939339 38.29006741 133.4375 47.3125 C132.7421932 50.93624133 132.7421932 50.93624133 134 54 C135.98 49.05 135.98 49.05 138 44 C138.66 44 139.32 44 140 44 C142.80162788 48.79638692 142.65406252 53.5870688 142 59 C141.09556664 61.17972223 140.01992916 63.11001503 138.82421875 65.140625 C137.42117698 68.30578084 138.17920053 70.71680214 139 74 C139.32613281 73.36191406 139.65226563 72.72382812 139.98828125 72.06640625 C140.42527344 71.24011719 140.86226562 70.41382812 141.3125 69.5625 C141.95638672 68.32693359 141.95638672 68.32693359 142.61328125 67.06640625 C144 65 144 65 147 64 C147.33072635 70.77376566 147.45046831 76.0509167 144 82 C142.6696875 83.2375 142.6696875 83.2375 141.3125 84.5 C138.61344655 86.90233167 138.61344655 86.90233167 138.6875 90.8125 C138.790625 91.864375 138.89375 92.91625 139 94 C139.47050781 93.44570312 139.94101563 92.89140625 140.42578125 92.3203125 C141.04839844 91.59585938 141.67101562 90.87140625 142.3125 90.125 C142.92738281 89.40570313 143.54226562 88.68640625 144.17578125 87.9453125 C146 86 146 86 149 84 C148.71018085 90.39051228 147.7905444 94.77519555 144 100 C138.87179487 104 138.87179487 104 136 104 C135.67 106.64 135.34 109.28 135 112 C135.44730469 111.59007812 135.89460937 111.18015625 136.35546875 110.7578125 C139.73744485 107.74359926 142.579668 105.33949455 147 104 C146.30372546 109.74426499 143.77232043 114.27558013 139.6875 118.25 C137 120 137 120 133.3125 121.4375 C129.82848552 122.67844863 129.82848552 122.67844863 128.5625 125.6875 C128.376875 126.450625 128.19125 127.21375 128 128 C128.61488281 127.71125 129.22976562 127.4225 129.86328125 127.125 C130.67152344 126.75375 131.47976562 126.3825 132.3125 126 C133.11300781 125.62875 133.91351563 125.2575 134.73828125 124.875 C137 124 137 124 140 124 C139.51027369 128.24429465 137.04768748 131.19252434 134 134 C129.4427772 137.05690254 125.5762335 138.55762335 120 138 C119.34 139.32 118.68 140.64 118 142 C119.00836062 143.23267348 119.00836062 143.23267348 121.06640625 143.09765625 C121.89011719 143.08605469 122.71382812 143.07445312 123.5625 143.0625 C124.38878906 143.05347656 125.21507812 143.04445312 126.06640625 143.03515625 C126.70449219 143.02355469 127.34257812 143.01195312 128 143 C125.91083549 147.85058493 122.82837202 150.00962094 118 152 C114.88542736 152.44209407 111.87883402 152.62333117 108.734375 152.6640625 C105.54020999 152.82612354 105.54020999 152.82612354 102 156 C105.96 156.33 109.92 156.66 114 157 C111.99600075 161.0079985 111.23653634 161.9096162 107.203125 163.46875 C102.41611376 164.62306477 96.70543273 164.85820303 91.98046875 163.359375 C89.42836868 162.71516212 89.42836868 162.71516212 85 165 C88.96 166.32 92.92 167.64 97 169 C92.52094331 172.35929252 91.07744394 173.16247723 85.6875 173.25 C84.74261719 173.27578125 83.79773438 173.3015625 82.82421875 173.328125 C80 173 80 173 77.546875 171.47265625 C74.26195051 169.57324439 72.3043014 169.81287913 68.5625 170.1875 C67.47066406 170.28417969 66.37882812 170.38085938 65.25390625 170.48046875 C61.9956426 171.00069572 59.09315449 171.86630989 56 173 C59.45680903 175.76544722 63.14341602 177.84921278 67 180 C67 180.99 67 181.98 67 183 C63.22760718 182.28580913 60.15433617 180.60943668 56.75 178.875 C50.95768558 176.19516668 48.10195051 175.09939246 42 177 C39.34225622 178.19319127 36.76264782 179.45941782 34.19921875 180.84375 C32 182 32 182 29 183 C29.0625 181.25 29.0625 181.25 30 179 C32.80448005 176.97767393 35.91279537 175.54360232 39 174 C33.25485291 171.19126142 27.4249723 169.36799377 21 169 C18.01755087 170.1353673 18.01755087 170.1353673 16 172 C11.20863728 173.59712091 6.74150731 173.58050244 2 172 C1.34 171.67 0.68 171.34 0 171 C0 170.01 0 169.02 0 168 C3.3 167.01 6.6 166.02 10 165 C6.08172478 163.09683775 4.17713351 163.08471633 0 164 C-6.96513112 164.72878801 -11.79531717 164.29258823 -17.63671875 160.2890625 C-18.31154297 159.65097656 -18.31154297 159.65097656 -19 159 C-19 158.34 -19 157.68 -19 157 C-15.04 156.67 -11.08 156.34 -7 156 C-11.32550462 152.75587153 -12.15162518 152.70562219 -17.25 152.6875 C-22.95546224 152.37944355 -26.14577824 151.30469436 -30.51171875 147.66796875 C-32 146 -32 146 -34 142 C-30.04 142.33 -26.08 142.66 -22 143 C-23.485 141.02 -23.485 141.02 -25 139 C-26.03125 138.87625 -27.0625 138.7525 -28.125 138.625 C-33.89653989 137.69410647 -38.58357993 134.7459319 -42.4609375 130.33984375 C-43.93515766 128.21215721 -45 126.63562097 -45 124 C-40.31479085 125.21815438 -36.29456388 126.69559987 -32 129 C-33.07401989 125.84954164 -33.92096074 123.54586692 -36.9921875 121.9921875 C-37.75789063 121.70601563 -38.52359375 121.41984375 -39.3125 121.125 C-44.61606452 119.04330774 -47.29061487 115.95036808 -50 111 C-50.91880779 108.64305827 -51.48153707 106.48862209 -52 104 C-47.32894208 105.55701931 -43.91294315 108.08447373 -40 111 C-40.0311941 108.13265479 -40.0311941 108.13265479 -41 105 C-43.83333333 102.75 -43.83333333 102.75 -47 101 C-48.875 99.375 -48.875 99.375 -50 98 C-50 97.34 -50 96.68 -50 96 C-50.66 96 -51.32 96 -52 96 C-53.29243536 91.8803623 -54.26252625 88.33168317 -54 84 C-49.82117329 86.56428003 -46.87494471 89.01930733 -44 93 C-43.55052758 89.92860511 -43.42306449 87.81198331 -45.265625 85.21875 C-46.31472888 84.0576059 -47.38964648 82.9191242 -48.4921875 81.80859375 C-51.75586109 77.89387646 -52.24499549 74.16731286 -52.125 69.1875 C-52.10695312 68.21167969 -52.08890625 67.23585938 -52.0703125 66.23046875 C-52.04710937 65.49441406 -52.02390625 64.75835937 -52 64 C-48.52867905 65.40929697 -47.11906726 66.90605083 -45.25 70.125 C-44.82203125 70.84945312 -44.3940625 71.57390625 -43.953125 72.3203125 C-43.63859375 72.87460938 -43.3240625 73.42890625 -43 74 C-42.60078895 68.31124257 -42.93353723 65.86780086 -46.1015625 60.9921875 C-47.92399234 56.95114742 -47.56917115 52.3217298 -47 48 C-45.9765625 45.66796875 -45.9765625 45.66796875 -45 44 C-42 45 -42 45 -40.8125 47.3125 C-40 50 -40 50 -40 54 C-39.34 54 -38.68 54 -38 54 C-36.98459888 49.89776415 -36.98459888 49.89776415 -38 46 C-38.50408076 39.524501 -38.90617268 33.49757636 -35 28 C-34.01 27.34 -33.02 26.68 -32 26 C-30.78306124 28.43387753 -30.68040104 30.41838846 -30.4375 33.125 C-30.31181641 34.49011719 -30.31181641 34.49011719 -30.18359375 35.8828125 C-30.09271484 36.93082031 -30.09271484 36.93082031 -30 38 C-28.3776873 36.8600937 -28.3776873 36.8600937 -27 35 C-26.7873322 32.29350567 -26.7873322 32.29350567 -27.0625 29.3125 C-27.24458794 22.14170358 -25.46437652 17.89926649 -20.875 12.5 C-19 11 -19 11 -17 11 C-17 14.96 -17 18.92 -17 23 C-13.39251698 19.39251698 -13.66530429 17.90661914 -13 13 C-11.26242339 8.09390135 -5.86280569 0 0 0 Z " fill="#3A5843" transform="translate(92,43)"/>
<path d="M0 0 C2.88000181 1.14867124 5.75583052 2.30672563 8.62890625 3.47265625 C9.94008511 4.00265132 11.2512834 4.53259831 12.5625 5.0625 C13.5515332 5.4656543 13.5515332 5.4656543 14.56054688 5.87695312 C20.13304872 8.12275538 24.28071116 9.12603438 30.296875 9.09765625 C32.10478516 9.09282227 32.10478516 9.09282227 33.94921875 9.08789062 C35.83060547 9.07532227 35.83060547 9.07532227 37.75 9.0625 C39.65458984 9.05573242 39.65458984 9.05573242 41.59765625 9.04882812 C44.73181836 9.03704556 47.86588541 9.02059416 51 9 C50.51354535 13.86454648 49.8895915 18.59426049 48.9453125 23.390625 C47.50503869 31.8078096 47.78746882 40.24010989 47.875 48.75 C47.91625 54.4425 47.9575 60.135 48 66 C32.16 66 16.32 66 0 66 C0 47.85 0 29.7 0 11 C4.14707161 11.82941432 7.37671658 12.86105494 11.25 14.4375 C20.60271927 18.07991704 28.99245877 19.30982474 39 20 C39 25.94 39 31.88 39 38 C39.66 31.4 40.32 24.8 41 18 C37.7515625 18.12375 37.7515625 18.12375 34.4375 18.25 C22.10109065 18.41187371 10.94247506 14.55086053 0 9 C0 6.03 0 3.06 0 0 Z " fill="#0D4222" transform="translate(142,70)"/>
<path d="M0 0 C0 18.15 0 36.3 0 55 C-12.54 55 -25.08 55 -38 55 C-37.979375 50.38 -37.95875 45.76 -37.9375 41 C-37.91379143 30.29413524 -38.04551959 19.66972744 -39 9 C-38.175 8.90203125 -37.35 8.8040625 -36.5 8.703125 C-25.95727038 7.33821804 -14.9419393 5.67790884 -5.15234375 1.37109375 C-2 0 -2 0 0 0 Z " fill="#114425" transform="translate(138,81)"/>
<path d="M0 0 C13.2 0 26.4 0 40 0 C40.66 4.29 41.32 8.58 42 13 C42.495 14.485 42.495 14.485 43 16 C43.73338848 23.48056252 41.17188865 28.16070807 36.75 33.94140625 C34.08408732 37.06575991 31.04089212 39.5228281 27.6875 41.875 C27.0908252 42.29773193 26.49415039 42.72046387 25.87939453 43.15600586 C18.08730747 48.51671228 9.2087165 53.69782088 0 56 C0 37.52 0 19.04 0 0 Z " fill="#114425" transform="translate(142,139)"/>
<path d="M0 0 C12.87 0 25.74 0 39 0 C39 18.48 39 36.96 39 56 C23.36033041 50.7867768 6.67262547 41.67651165 -2.16796875 27.0703125 C-5.52440998 18.71860428 -1.70324136 7.94845969 0 0 Z " fill="#104424" transform="translate(99,139)"/>
<path d="M0 0 C2.88000181 1.14867124 5.75583052 2.30672563 8.62890625 3.47265625 C9.94008511 4.00265132 11.2512834 4.53259831 12.5625 5.0625 C13.5515332 5.4656543 13.5515332 5.4656543 14.56054688 5.87695312 C20.13304872 8.12275538 24.28071116 9.12603438 30.296875 9.09765625 C32.10478516 9.09282227 32.10478516 9.09282227 33.94921875 9.08789062 C35.83060547 9.07532227 35.83060547 9.07532227 37.75 9.0625 C39.65458984 9.05573242 39.65458984 9.05573242 41.59765625 9.04882812 C44.73181836 9.03704556 47.86588541 9.02059416 51 9 C50.51354535 13.86454648 49.8895915 18.59426049 48.9453125 23.390625 C47.50503869 31.8078096 47.78746882 40.24010989 47.875 48.75 C47.91625 54.4425 47.9575 60.135 48 66 C32.16 66 16.32 66 0 66 C0 65.67 0 65.34 0 65 C12.54 65 25.08 65 38 65 C38.185625 58.93625 38.185625 58.93625 38.375 52.75 C38.76992399 41.0986789 39.64046324 29.57586154 41 18 C40.09121094 18.04640625 39.18242187 18.0928125 38.24609375 18.140625 C24.33606071 18.54009262 12.48579347 15.3337497 0 9 C0 6.03 0 3.06 0 0 Z " fill="#174829" transform="translate(142,70)"/>
<path d="M0 0 C0.66 0 1.32 0 2 0 C2 2.97 2 5.94 2 9 C-11.87158582 15.67207455 -23.59295768 18.20851636 -39 18 C-38.855625 18.85335937 -38.71125 19.70671875 -38.5625 20.5859375 C-37.22040258 29.62645482 -36.80738942 38.48344161 -36.8125 47.625 C-36.81185547 48.75083496 -36.81121094 49.87666992 -36.81054688 51.03662109 C-36.84437582 56.15786136 -37.06507239 60.95185723 -38 66 C-40.64 66 -43.28 66 -46 66 C-45.98952637 65.01829834 -45.97905273 64.03659668 -45.96826172 63.02514648 C-45.93146553 59.30692337 -45.90888787 55.58871551 -45.89013672 51.87036133 C-45.88021249 50.27528152 -45.86666873 48.68021923 -45.84912109 47.08520508 C-45.73583679 36.50645042 -46.32478164 26.46818833 -48 16 C-48.33644201 13.66711288 -48.67063509 11.33389681 -49 9 C-48.00371582 9.02356567 -48.00371582 9.02356567 -46.98730469 9.04760742 C-29.99283081 9.3968695 -16.56335433 8.34569186 -1 1 C-0.67 0.67 -0.34 0.34 0 0 Z " fill="#154728" transform="translate(136,70)"/>
<path d="M0 0 C2.64 0 5.28 0 8 0 C13.7256217 23.03881112 13.7256217 23.03881112 7.65234375 33.5703125 C-3.33904777 49.73259507 -21.18706876 58.94380128 -39 66 C-39.66 66 -40.32 66 -41 66 C-41 63.36 -41 60.72 -41 58 C-40.00742188 57.52691406 -39.01484375 57.05382812 -37.9921875 56.56640625 C-13.66432751 45.37253557 -13.66432751 45.37253557 2 25 C2.96683195 18.7206809 1.72931866 12.59939307 0.4375 6.4453125 C0 4 0 4 0 0 Z " fill="#154728" transform="translate(183,139)"/>
<path d="M0 0 C2.64 0 5.28 0 8 0 C7.85764543 1.72945653 7.71095618 3.45855654 7.5625 5.1875 C7.48128906 6.15042969 7.40007812 7.11335937 7.31640625 8.10546875 C7.02299562 10.78963266 6.54729429 13.35833544 6 16 C4.84818035 22.9370956 6.65294269 27.52576829 10.64453125 33.23828125 C19.28153267 43.36491476 31.26734637 49.19311375 43 55 C44.15628906 55.57878906 45.31257813 56.15757812 46.50390625 56.75390625 C47.73947266 57.37072266 47.73947266 57.37072266 49 58 C49 60.64 49 63.28 49 66 C42.49015894 64.04559134 36.55934754 61.50141618 30.5625 58.3125 C29.72992676 57.87043213 28.89735352 57.42836426 28.03955078 56.97290039 C21.78077226 53.57421105 16.23236007 49.85930332 11 45 C10.20207031 44.30390625 9.40414062 43.6078125 8.58203125 42.890625 C2.39418337 37.19740117 -1.98401269 31.0466041 -3.40234375 22.60546875 C-3.71755628 15.00254245 -1.65226028 7.37616194 0 0 Z " fill="#154728" transform="translate(89,139)"/>
<path d="M0 0 C5.61 0 11.22 0 17 0 C17 0.66 17 1.32 17 2 C17.66 2 18.32 2 19 2 C19.04898438 2.89203125 19.09796875 3.7840625 19.1484375 4.703125 C19.22320312 5.87359375 19.29796875 7.0440625 19.375 8.25 C19.44460937 9.41015625 19.51421875 10.5703125 19.5859375 11.765625 C19.97176287 14.77943073 20.62172916 16.37683936 22 19 C22.24636612 21.70017269 22.09065666 24.28030006 22 27 C18.7 27 15.4 27 12 27 C12 26.01 12 25.02 12 24 C8.7 24 5.4 24 2 24 C2.02320313 22.43507812 2.04640625 20.87015625 2.0703125 19.2578125 C2.08906723 17.21354642 2.10726775 15.1692752 2.125 13.125 C2.14175781 12.09246094 2.15851563 11.05992187 2.17578125 9.99609375 C2.18222656 9.00996094 2.18867188 8.02382812 2.1953125 7.0078125 C2.20578613 6.09660645 2.21625977 5.18540039 2.22705078 4.24658203 C2.21870993 1.79709564 2.21870993 1.79709564 0 0 Z " fill="#1B4A2C" transform="translate(151,148)"/>
<path d="M0 0 C1.27617188 0.11408203 1.27617188 0.11408203 2.578125 0.23046875 C4.75 0.8125 4.75 0.8125 6.75 3.8125 C7.57669628 9.44906557 6.89148402 13.98807811 3.75 18.8125 C0.65936978 22.78616743 -2.34630764 23.8661734 -7.25 24.8125 C-10.1875 24.4375 -10.1875 24.4375 -12.25 23.8125 C-13.375 18.1875 -13.375 18.1875 -12.25 14.8125 C-12.02548542 12.58675665 -11.84217122 10.35668481 -11.6875 8.125 C-11.60371094 6.94550781 -11.51992187 5.76601562 -11.43359375 4.55078125 C-11.37300781 3.64714844 -11.31242187 2.74351562 -11.25 1.8125 C-7.26923308 0.30516282 -4.24209784 -0.44893367 0 0 Z " fill="#B0B9AF" transform="translate(122.25,148.1875)"/>
<path d="M0 0 C1.9375 0.1875 1.9375 0.1875 4 1 C6.59320464 4.37116604 6.15762235 7.90181884 6 12 C3.03 12 0.06 12 -3 12 C-3.33 9.69 -3.66 7.38 -4 5 C-5.32 5 -6.64 5 -8 5 C-8.33 5.99 -8.66 6.98 -9 8 C-7.35 8 -5.7 8 -4 8 C-4 8.33 -4 8.66 -4 9 C-5.98 9 -7.96 9 -10 9 C-10 11.97 -10 14.94 -10 18 C-7.36 18 -4.72 18 -2 18 C-2 16.68 -2 15.36 -2 14 C-1.34 14 -0.68 14 0 14 C0 14.99 0 15.98 0 17 C0.61875 16.505 1.2375 16.01 1.875 15.5 C4 14 4 14 6 14 C5.8123405 18.03467916 5.20790966 19.75477323 2.5625 22.875 C-0.97879611 25.5181413 -4.34216509 25.65304394 -8.66015625 25.42578125 C-12.84331366 24.66457231 -14.90043394 22.51844837 -17.3125 19.1875 C-18.33529387 15.93315587 -18.35124367 13.39535546 -18 10 C-15.97333762 6.29609979 -14.51955484 4.34636989 -11 2 C-8.5546875 1.62109375 -8.5546875 1.62109375 -5.875 1.4375 C-2.63079025 1.45515121 -2.63079025 1.45515121 0 0 Z " fill="#B8C4BA" transform="translate(125,99)"/>
<path d="M0 0 C3.47924392 0.8645394 4.91967516 2.61216046 6.93359375 5.48046875 C8.06840785 9.45231809 8.37083199 11.49668272 6.68359375 15.29296875 C4.93359375 17.48046875 4.93359375 17.48046875 1.93359375 19.48046875 C-2.31393155 19.78937968 -5.42505155 19.81093576 -9.06640625 17.48046875 C-9.14890625 18.05796875 -9.23140625 18.63546875 -9.31640625 19.23046875 C-10.27171638 22.09639915 -11.85109798 23.47954515 -14.06640625 25.48046875 C-15.38640625 24.82046875 -16.70640625 24.16046875 -18.06640625 23.48046875 C-17.11218817 22.33120609 -16.1528858 21.18616334 -15.19140625 20.04296875 C-14.65773437 19.40488281 -14.1240625 18.76679687 -13.57421875 18.109375 C-12.06640625 16.48046875 -12.06640625 16.48046875 -10.06640625 15.48046875 C-10.41703125 14.94421875 -10.76765625 14.40796875 -11.12890625 13.85546875 C-12.42046488 10.58352023 -12.09233268 8.83182841 -11.06640625 5.48046875 C-7.9004201 1.06727594 -5.2993382 -0.37065314 0 0 Z " fill="#6F8973" transform="translate(166.06640625,99.51953125)"/>
<path d="M0 0 C2.39533671 2.15580304 3.86419076 3.63501267 5 6.6875 C5.33 7.450625 5.66 8.21375 6 9 C8.04105639 9.88693303 8.04105639 9.88693303 10 10 C9.67 10.99 9.34 11.98 9 13 C9.61488281 12.71125 10.22976562 12.4225 10.86328125 12.125 C11.67152344 11.75375 12.47976562 11.3825 13.3125 11 C14.11300781 10.62875 14.91351563 10.2575 15.73828125 9.875 C18 9 18 9 21 9 C20.51027369 13.24429465 18.04768748 16.19252434 15 19 C10.4427772 22.05690254 6.5762335 23.55762335 1 23 C0.67 23.66 0.34 24.32 0 25 C-1.32 24.67 -2.64 24.34 -4 24 C-3.34 23.34 -2.68 22.68 -2 22 C-2.09680011 18.90474772 -2.09680011 18.90474772 -2.5625 15.375 C-3.11801032 9.23913602 -2.73959444 5.47918887 0 0 Z " fill="#405D49" transform="translate(211,158)"/>
<path d="M0 0 C-0.66 0.33 -1.32 0.66 -2 1 C-0.68 1.66 0.64 2.32 2 3 C0.95199219 3.19335938 -0.09601563 3.38671875 -1.17578125 3.5859375 C-2.55475593 3.84859934 -3.93365849 4.11164 -5.3125 4.375 C-6.00279297 4.50132812 -6.69308594 4.62765625 -7.40429688 4.7578125 C-10.83703314 5.42114318 -13.05246458 6.03497639 -16 8 C-12.37 9.98 -8.74 11.96 -5 14 C-5 14.99 -5 15.98 -5 17 C-8.77239282 16.28580913 -11.84566383 14.60943668 -15.25 12.875 C-21.04231442 10.19516668 -23.89804949 9.09939246 -30 11 C-32.65774378 12.19319127 -35.23735218 13.45941782 -37.80078125 14.84375 C-40 16 -40 16 -43 17 C-42.9375 15.25 -42.9375 15.25 -42 13 C-39.19551995 10.97767393 -36.08720463 9.54360232 -33 8 C-37.96093728 5.72623708 -42.67812773 4.21376034 -48 3 C-47.34 2.67 -46.68 2.34 -46 2 C-46 1.34 -46 0.68 -46 0 C-45.10539062 0.20496094 -44.21078125 0.40992188 -43.2890625 0.62109375 C-39.53326151 1.45794066 -35.77065416 2.23315463 -32 3 C-30.76830078 3.29583984 -30.76830078 3.29583984 -29.51171875 3.59765625 C-22.52311615 4.87621054 -16.18221311 2.72357569 -9.51098633 0.7421875 C-8.7145874 0.50757813 -7.91818848 0.27296875 -7.09765625 0.03125 C-6.02269897 -0.30036133 -6.02269897 -0.30036133 -4.92602539 -0.63867188 C-3 -1 -3 -1 0 0 Z " fill="#36543F" transform="translate(164,209)"/>
<path d="M0 0 C5.03372844 1.43820813 6.98955889 3.90245515 10 8 C11.78793044 13.36379133 11.69055197 18.88772338 9.9375 24.25 C6.82443568 28.66854291 3.17827004 32.27390999 -2 34 C-8.38270301 34.76793863 -13.84831644 34.0341817 -19 30 C-21.0954092 27.52632216 -22.85562159 25.04542233 -24 22 C-23.505 20.515 -23.505 20.515 -23 19 C-22.68546875 19.48210938 -22.3709375 19.96421875 -22.046875 20.4609375 C-21.40492187 21.40839844 -21.40492187 21.40839844 -20.75 22.375 C-20.12351562 23.31472656 -20.12351562 23.31472656 -19.484375 24.2734375 C-17.11568482 27.02859818 -14.98266321 27.85898338 -11.4140625 28.37109375 C-4.98572998 28.60056012 -4.98572998 28.60056012 0.5625 25.75 C5.10017653 20.63057006 5.47657889 16.73499513 5.40234375 9.99609375 C4.79643308 5.48411819 3.02466924 3.32713616 0 0 Z " fill="#395642" transform="translate(145,18)"/>
<path d="M0 0 C4.15561403 2.55003588 7.27889275 4.91833913 10 9 C10 9.99 10 10.98 10 12 C10.66 12 11.32 12 12 12 C12 9.69 12 7.38 12 5 C12.99 5.99 13.98 6.98 15 8 C15.40992188 7.4946875 15.81984375 6.989375 16.2421875 6.46875 C16.78101562 5.8190625 17.31984375 5.169375 17.875 4.5 C18.40867187 3.8503125 18.94234375 3.200625 19.4921875 2.53125 C19.98976563 2.0259375 20.48734375 1.520625 21 1 C21.66 1 22.32 1 23 1 C22.85811116 7.41079589 22.18933837 11.4755006 18.078125 16.4609375 C16.54813092 18.64505948 16.60900481 20.41943174 17 23 C16.34 23 15.68 23 15 23 C14.67 23.66 14.34 24.32 14 25 C13.95875 24.4225 13.9175 23.845 13.875 23.25 C12.56017459 19.86902037 10.01965292 18.87218481 7 17 C5.125 15.375 5.125 15.375 4 14 C4 13.34 4 12.68 4 12 C3.34 12 2.68 12 2 12 C0.70756464 7.8803623 -0.26252625 4.33168317 0 0 Z " fill="#375540" transform="translate(38,127)"/>
<path d="M0 0 C10.625 -0.25 10.625 -0.25 14 2 C14.3125 5.5 14.3125 5.5 14 9 C13.34 9.66 12.68 10.32 12 11 C12.27617533 12.94074861 12.27617533 12.94074861 13 15 C13.33333333 16.33333333 13.66666667 17.66666667 14 19 C12.35 19 10.7 19 9 19 C8.319375 17.5459375 8.319375 17.5459375 7.625 16.0625 C6.34213779 12.92920418 6.34213779 12.92920418 4 12 C4 14.64 4 17.28 4 20 C2.68 20 1.36 20 0 20 C0 13.4 0 6.8 0 0 Z " fill="#174829" transform="translate(166,240)"/>
<path d="M0 0 C10.48893081 -0.37019756 10.48893081 -0.37019756 12.828125 1.32421875 C14.66769486 3.95480366 14.45354771 5.88995859 14 9 C12.375 10.875 12.375 10.875 10 12 C6.75 12.1875 6.75 12.1875 4 12 C4 14.64 4 17.28 4 20 C2.68 20 1.36 20 0 20 C0 13.4 0 6.8 0 0 Z " fill="#1B4B2C" transform="translate(94,240)"/>
<path d="M0 0 C5.61 0 11.22 0 17 0 C17 0.66 17 1.32 17 2 C17.66 2 18.32 2 19 2 C19.04898438 2.89203125 19.09796875 3.7840625 19.1484375 4.703125 C19.22320312 5.87359375 19.29796875 7.0440625 19.375 8.25 C19.44460937 9.41015625 19.51421875 10.5703125 19.5859375 11.765625 C19.97176287 14.77943073 20.62172916 16.37683936 22 19 C22.24636612 21.70017269 22.09065666 24.28030006 22 27 C18.7 27 15.4 27 12 27 C12 26.01 12 25.02 12 24 C8.7 24 5.4 24 2 24 C2.02320313 22.43507812 2.04640625 20.87015625 2.0703125 19.2578125 C2.08906723 17.21354642 2.10726775 15.1692752 2.125 13.125 C2.14175781 12.09246094 2.15851563 11.05992187 2.17578125 9.99609375 C2.18222656 9.00996094 2.18867188 8.02382812 2.1953125 7.0078125 C2.20578613 6.09660645 2.21625977 5.18540039 2.22705078 4.24658203 C2.21870993 1.79709564 2.21870993 1.79709564 0 0 Z M3 4 C3 10.27 3 16.54 3 23 C5.97 23 8.94 23 12 23 C12 21.68 12 20.36 12 19 C13.98 19 15.96 19 18 19 C18 17.68 18 16.36 18 15 C17.01 15 16.02 15 15 15 C15.99 14.67 16.98 14.34 18 14 C18 10.7 18 7.4 18 4 C13.05 4 8.1 4 3 4 Z " fill="#AAB4A9" transform="translate(151,148)"/>
<path d="M0 0 C2.9375 2.5 2.9375 2.5 5 5 C5 5.33 5 5.66 5 6 C1.28400809 6.20086443 0.22791555 6.1519437 -3 4 C-6.31086259 4.28274138 -6.31086259 4.28274138 -9 6 C-9.26293056 10.03160191 -9.29404844 11.55892734 -7 15 C-3.18186553 14.72459296 -3.18186553 14.72459296 0 13 C1.66617115 12.95936168 3.33388095 12.957279 5 13 C3.65815246 15.54951033 2.5330894 17.58114404 0.25 19.375 C-3.18832218 20.33008949 -5.56397688 19.90421661 -9 19 C-12.02182284 16.94258871 -13.69011377 15.50050175 -14.4453125 11.84375 C-14.64857748 7.77845047 -14.32172362 5.53250806 -12.1875 2 C-8.20752169 -1.63883731 -5.04222675 -1.21708922 0 0 Z " fill="#204E30" transform="translate(143,240)"/>
<path d="M0 0 C1.32 0 2.64 0 4 0 C4.33 1.98 4.66 3.96 5 6 C5.721875 5.01 6.44375 4.02 7.1875 3 C9.6095123 0.05206503 9.6095123 0.05206503 12.8125 -0.375 C13.534375 -0.25125 14.25625 -0.1275 15 0 C14.071875 1.36125 14.071875 1.36125 13.125 2.75 C11.54959616 5.15944116 10.2424551 7.42554349 9 10 C9.433125 10.48210937 9.86625 10.96421875 10.3125 11.4609375 C10.869375 12.09257812 11.42625 12.72421875 12 13.375 C12.8353125 14.31472656 12.8353125 14.31472656 13.6875 15.2734375 C15 17 15 17 15 19 C12.8125 19.375 12.8125 19.375 10 19 C8.00977164 17.16038352 6.61010101 15.20813852 5 13 C4.67 15.31 4.34 17.62 4 20 C2.68 20 1.36 20 0 20 C0 13.4 0 6.8 0 0 Z " fill="#1D4C2D" transform="translate(111,240)"/>
<path d="M0 0 C1.9375 0.1875 1.9375 0.1875 4 1 C6.59320464 4.37116604 6.15762235 7.90181884 6 12 C3.03 12 0.06 12 -3 12 C-3.33 9.69 -3.66 7.38 -4 5 C-5.32 5 -6.64 5 -8 5 C-8.33 5.99 -8.66 6.98 -9 8 C-7.35 8 -5.7 8 -4 8 C-4 8.33 -4 8.66 -4 9 C-5.98 9 -7.96 9 -10 9 C-10.33 11.31 -10.66 13.62 -11 16 C-11.33 16 -11.66 16 -12 16 C-12.33 14.35 -12.66 12.7 -13 11 C-14.98 11.99 -14.98 11.99 -17 13 C-16.77511717 9.10203092 -16.56618321 6.69403104 -14.0625 3.625 C-10.33921596 1.6493799 -7.27540638 1.39147814 -3.109375 1.17578125 C-1.01456581 1.22987989 -1.01456581 1.22987989 0 0 Z " fill="#8E9F8E" transform="translate(125,99)"/>
<path d="M0 0 C0.33 0 0.66 0 1 0 C1.33 2.64 1.66 5.28 2 8 C5.63 8.33 9.26 8.66 13 9 C13 8.34 13 7.68 13 7 C9.37 7 5.74 7 2 7 C2 6.34 2 5.68 2 5 C5.96 5 9.92 5 14 5 C14.66 3.68 15.32 2.36 16 1 C16.33 1.99 16.66 2.98 17 4 C17.33 2.68 17.66 1.36 18 0 C19.34323432 6.22772277 19.34323432 6.22772277 17.75 9.8125 C16 12 16 12 13 14 C8.7524747 14.30891093 5.6413547 14.33046701 2 12 C1.9175 12.5775 1.835 13.155 1.75 13.75 C0.79468987 16.6159304 -0.78469173 17.9990764 -3 20 C-4.32 19.34 -5.64 18.68 -7 18 C-6.04578192 16.85073734 -5.08647955 15.70569459 -4.125 14.5625 C-3.59132812 13.92441406 -3.05765625 13.28632812 -2.5078125 12.62890625 C-1 11 -1 11 1 10 C0.649375 9.46375 0.29875 8.9275 -0.0625 8.375 C-1.28924249 5.26725237 -0.72856431 3.20568297 0 0 Z " fill="#7C937F" transform="translate(155,105)"/>
<path d="M0 0 C0.66 0.66 1.32 1.32 2 2 C-10.61693062 7.46026829 -23.01158274 11.87024716 -37 11 C-36.855625 11.92296875 -36.71125 12.8459375 -36.5625 13.796875 C-34.52262516 28.13266204 -34.08201543 42.61511574 -36 57 C-36.66 56.67 -37.32 56.34 -38 56 C-37.99476318 55.14470703 -37.98952637 54.28941406 -37.98413086 53.40820312 C-37.78207411 31.1819735 -37.78207411 31.1819735 -39 9 C-37.73027344 8.91363281 -36.46054688 8.82726562 -35.15234375 8.73828125 C-22.66051304 7.76387948 -11.22282427 5.9414952 0 0 Z " fill="#C6CCC6" transform="translate(136,79)"/>
<path d="M0 0 C3.96 0 7.92 0 12 0 C12 0.99 12 1.98 12 3 C9.36 3 6.72 3 4 3 C4 4.65 4 6.3 4 8 C5.98 8 7.96 8 10 8 C10 8.99 10 9.98 10 11 C8.02 11 6.04 11 4 11 C4 12.65 4 14.3 4 16 C6.31 16 8.62 16 11 16 C11 17.32 11 18.64 11 20 C7.37 20 3.74 20 0 20 C0 13.4 0 6.8 0 0 Z " fill="#184A2B" transform="translate(151,240)"/>
<path d="M0 0 C2.70466749 4.05700124 2.52988139 7.23921955 2 12 C0.42983091 16.16094809 -1.48790837 19.23289751 -5 22 C-6.32 22 -7.64 22 -9 22 C-9 20.02 -9 18.04 -9 16 C-8.67 17.32 -8.34 18.64 -8 20 C-3.71675909 17.48592381 -1.35468295 15.87685861 0 11 C-2.31 11 -4.62 11 -7 11 C-7 7.7 -7 4.4 -7 1 C-9.3431213 1.25561323 -11.67843403 1.59270772 -14 2 C-14.33 2.66 -14.66 3.32 -15 4 C-15 2.68 -15 1.36 -15 0 C-10.15915241 -1.45225428 -4.87903584 -1.20896463 0 0 Z " fill="#E9EBE9" transform="translate(127,149)"/>
<path d="M0 0 C0.66 0.33 1.32 0.66 2 1 C1.11836115 8.43095599 1.11836115 8.43095599 0.4921875 11.44140625 C-0.75947628 17.94807115 -1.187732 23.9091606 2.4375 29.6875 C12.12578193 42.27780186 26.61058996 49.89922674 41 56 C40.505 56.99 40.505 56.99 40 58 C3.92848601 40.36702666 3.92848601 40.36702666 -3 25 C-4.9203086 17.26228595 -1.57970511 7.66345039 0 0 Z " fill="#C4CAC4" transform="translate(97,139)"/>
<path d="M0 0 C1.05058594 0.40992187 2.10117188 0.81984375 3.18359375 1.2421875 C15.69593337 6.07253256 26.56200785 8.32721515 40 9 C40.02792326 10.45821481 40.04679418 11.91660243 40.0625 13.375 C40.07410156 14.18710938 40.08570313 14.99921875 40.09765625 15.8359375 C40.01638055 18.46927003 39.8104005 21.00864826 39.53125 23.625 C38.93567831 29.28478066 38.66898778 34.94026729 38.4375 40.625 C38.37272461 42.13126953 38.37272461 42.13126953 38.30664062 43.66796875 C38.20190141 46.11188383 38.09972744 48.55587617 38 51 C37.67 51 37.34 51 37 51 C36.97509536 46.58919646 36.95704396 42.17843129 36.94506836 37.76757812 C36.94007057 36.27017503 36.9332701 34.77277673 36.92456055 33.27539062 C36.91229377 31.11066495 36.90672603 28.94600435 36.90234375 26.78125 C36.89710693 25.48251953 36.89187012 24.18378906 36.88647461 22.84570312 C37.0053392 18.81913327 37.43973231 14.98584904 38 11 C37.30777344 11.04640625 36.61554688 11.0928125 35.90234375 11.140625 C22.70847116 11.62735548 10.88282514 7.3992725 -1 2 C-0.67 1.34 -0.34 0.68 0 0 Z " fill="#C2C8C2" transform="translate(143,79)"/>
<path d="M0 0 C0.66 0 1.32 0 2 0 C2.28875 0.928125 2.5775 1.85625 2.875 2.8125 C3.8875 6.09791667 3.8875 6.09791667 6 9 C4.35 9.66 2.7 10.32 1 11 C1 12.65 1 14.3 1 16 C-0.32 15.34 -1.64 14.68 -3 14 C-3 13.34 -3 12.68 -3 12 C-4.98 12 -6.96 12 -9 12 C-8.835 10.906875 -8.67 9.81375 -8.5 8.6875 C-7.93281816 5.12474127 -7.93281816 5.12474127 -8 2 C-7.05125 2.04125 -6.1025 2.0825 -5.125 2.125 C-1.89755144 2.34973818 -1.89755144 2.34973818 0 0 Z " fill="#3A5743" transform="translate(139,23)"/>
<path d="M0 0 C1.32 0.66 2.64 1.32 4 2 C4 4.31 4 6.62 4 9 C6.64 9 9.28 9 12 9 C12.33 9.66 12.66 10.32 13 11 C9.25 14 9.25 14 7 14 C7 13.01 7 12.02 7 11 C6.34 11 5.68 11 5 11 C5 12.32 5 13.64 5 15 C2.36 15 -0.28 15 -3 15 C-3.37379162 5.46831364 -3.37379162 5.46831364 -1 1 C-0.67 0.67 -0.34 0.34 0 0 Z " fill="#104424" transform="translate(118,102)"/>
<path d="M0 0 C1.50433594 0.01353516 1.50433594 0.01353516 3.0390625 0.02734375 C3.80992188 0.03894531 4.58078125 0.05054688 5.375 0.0625 C1.01958352 6.59562473 -4.65483209 8.79942066 -12.125 10.3125 C-13.62300315 10.57419935 -15.12242213 10.82849197 -16.625 11.0625 C-15.68909496 9.9569811 -14.75120142 8.85314547 -13.8125 7.75 C-13.29042969 7.13511719 -12.76835938 6.52023438 -12.23046875 5.88671875 C-8.18577121 1.29091886 -6.25668533 -0.07275216 0 0 Z " fill="#35533E" transform="translate(109.625,42.9375)"/>
<path d="M0 0 C4.62 0 9.24 0 14 0 C14 0.99 14 1.98 14 3 C12.35 3 10.7 3 9 3 C9 8.28 9 13.56 9 19 C7.68 19 6.36 19 5 19 C5 13.72 5 8.44 5 3 C3.35 3 1.7 3 0 3 C0 2.01 0 1.02 0 0 Z " fill="#0D4222" transform="translate(183,240)"/>
<path d="M0 0 C3.3 0 6.6 0 10 0 C10 2.64 10 5.28 10 8 C6.7 8 3.4 8 0 8 C0 7.01 0 6.02 0 5 C-2.97 5 -5.94 5 -9 5 C-9 4.67 -9 4.34 -9 4 C-6.03 4 -3.06 4 0 4 C0 2.68 0 1.36 0 0 Z " fill="#DEE2DE" transform="translate(163,167)"/>
<path d="M0 0 C1.875 1.5 1.875 1.5 3 3 C2.67 3.66 2.34 4.32 2 5 C1.34 5 0.68 5 0 5 C0 4.01 0 3.02 0 2 C-2.31 2 -4.62 2 -7 2 C-7 2.99 -7 3.98 -7 5 C-7.66 5 -8.32 5 -9 5 C-9 5.99 -9 6.98 -9 8 C-5.37 8 -1.74 8 2 8 C2.33 7.34 2.66 6.68 3 6 C2.67 7.32 2.34 8.64 2 10 C-1.96 9.67 -5.92 9.34 -10 9 C-10 9.66 -10 10.32 -10 11 C-6.37 11 -2.74 11 1 11 C1 11.66 1 12.32 1 13 C-0.81242052 13.02687279 -2.62495233 13.04633715 -4.4375 13.0625 C-5.44683594 13.07410156 -6.45617187 13.08570312 -7.49609375 13.09765625 C-10 13 -10 13 -11 12 C-11.28803699 9.07162397 -11.48693199 6.84965878 -11 4 C-7.72595624 0.14818382 -4.97479993 -0.75703477 0 0 Z " fill="#164727" transform="translate(167,101)"/>
<path d="M0 0 C5.61 0.33 11.22 0.66 17 1 C17 1.33 17 1.66 17 2 C12.38 2 7.76 2 3 2 C3 8.6 3 15.2 3 22 C2.01 21.67 1.02 21.34 0 21 C0 14.07 0 7.14 0 0 Z " fill="#3D6046" transform="translate(150,148)"/>
<path d="M0 0 C0 0.66 0 1.32 0 2 C-1.65 2.33 -3.3 2.66 -5 3 C-5.33 3.99 -5.66 4.98 -6 6 C-4.35 6 -2.7 6 -1 6 C-1 6.33 -1 6.66 -1 7 C-2.98 7 -4.96 7 -7 7 C-7.33 9.31 -7.66 11.62 -8 14 C-8.33 14 -8.66 14 -9 14 C-9.33 12.35 -9.66 10.7 -10 9 C-11.98 9.99 -11.98 9.99 -14 11 C-13.76928323 7.0009094 -13.56356875 4.66603579 -10.9375 1.5625 C-6.98715265 -0.53874859 -4.43222695 -0.30048996 0 0 Z " fill="#ABBAAE" transform="translate(122,101)"/>
<path d="M0 0 C-0.99 0.495 -0.99 0.495 -2 1 C-0.68 1.66 0.64 2.32 2 3 C0.98679688 3.19335938 -0.02640625 3.38671875 -1.0703125 3.5859375 C-2.42191568 3.84874923 -3.77347592 4.11178183 -5.125 4.375 C-5.79015625 4.50132812 -6.4553125 4.62765625 -7.140625 4.7578125 C-11.218661 5.5574274 -15.08853085 6.59869485 -19 8 C-19 7.01 -19 6.02 -19 5 C-19.99 4.67 -20.98 4.34 -22 4 C-18.89948553 3.1321772 -15.79413335 2.28313233 -12.6875 1.4375 C-11.80642578 1.19064453 -10.92535156 0.94378906 -10.01757812 0.68945312 C-9.17001953 0.46064453 -8.32246094 0.23183594 -7.44921875 -0.00390625 C-6.66893311 -0.21861572 -5.88864746 -0.4333252 -5.0847168 -0.65454102 C-3 -1 -3 -1 0 0 Z " fill="#56715E" transform="translate(164,209)"/>
<path d="M0 0 C1.65 0.33 3.3 0.66 5 1 C5.9765625 7.0546875 5.9765625 7.0546875 6 9 C5.34 9.66 4.68 10.32 4 11 C1.375 10.625 1.375 10.625 -1 10 C-2.23076923 4.58461538 -2.23076923 4.58461538 -1.0625 1.625 C-0.5365625 0.820625 -0.5365625 0.820625 0 0 Z " fill="#F5F6F5" transform="translate(111,162)"/>
<path d="M0 0 C0.66 0.66 1.32 1.32 2 2 C2.61875 1.649375 3.2375 1.29875 3.875 0.9375 C4.926875 0.4734375 4.926875 0.4734375 6 0 C6.66 0.33 7.32 0.66 8 1 C8 4.96 8 8.92 8 13 C4.34473692 11.17236846 2.41559768 10.1920398 0 7 C-0.25 3.25 -0.25 3.25 0 0 Z " fill="#A7B6AA" transform="translate(107,109)"/>
<path d="M0 0 C0 3.3 0 6.6 0 10 C-2.31 10 -4.62 10 -7 10 C-7 7.03 -7 4.06 -7 1 C-2.25 0 -2.25 0 0 0 Z " fill="#1D4B2D" transform="translate(120,150)"/>
<path d="M0 0 C4.62 0.99 9.24 1.98 14 3 C13.67 3.99 13.34 4.98 13 6 C13.99 6 14.98 6 16 6 C15.67 6.66 15.34 7.32 15 8 C14.443125 7.80664062 13.88625 7.61328125 13.3125 7.4140625 C8.24882873 5.68625575 3.20677935 4.2306933 -2 3 C-1.34 2.67 -0.68 2.34 0 2 C0 1.34 0 0.68 0 0 Z " fill="#435F4C" transform="translate(118,209)"/>
<path d="M0 0 C0.66 0.33 1.32 0.66 2 1 C-0.17675123 3.40578764 -2.36827901 5.79764431 -4.5625 8.1875 C-5.17158203 8.86103516 -5.78066406 9.53457031 -6.40820312 10.22851562 C-10.30455663 14.45471916 -14.20634519 17.82273845 -19 21 C-15.70640146 13.78925758 -9.66454377 8.48478158 -3.69921875 3.4453125 C-1.90381734 1.95747294 -1.90381734 1.95747294 0 0 Z " fill="#505050" transform="translate(51,31)"/>
<path d="M0 0 C2.31 0 4.62 0 7 0 C6.07506212 3.78383679 5.60628829 5.56693694 2.375 7.875 C1.59125 8.24625 0.8075 8.6175 0 9 C0 6.03 0 3.06 0 0 Z " fill="#18482A" transform="translate(120,160)"/>
<path d="M0 0 C3.61798746 1.15117783 6.50570795 2.90297934 9.75 4.875 C9.75 5.865 9.75 6.855 9.75 7.875 C6.25596417 7.15123543 3.23001095 5.81214794 0 4.3125 C-0.98484375 3.85746094 -1.9696875 3.40242187 -2.984375 2.93359375 C-3.73203125 2.58425781 -4.4796875 2.23492187 -5.25 1.875 C-2.25 -0.125 -2.25 -0.125 0 0 Z " fill="#4A6553" transform="translate(149.25,218.125)"/>
<path d="M0 0 C-0.2578125 1.86328125 -0.2578125 1.86328125 -1 4 C-2.7421875 5.23046875 -2.7421875 5.23046875 -4.875 6.1875 C-5.57367188 6.51105469 -6.27234375 6.83460938 -6.9921875 7.16796875 C-8.63424713 7.84843315 -10.31374603 8.43791534 -12 9 C-11.9375 7.25 -11.9375 7.25 -11 5 C-7.83978683 2.72115281 -3.94084188 0 0 0 Z " fill="#435E4B" transform="translate(133,217)"/>
<path d="M0 0 C3.63 0 7.26 0 11 0 C11 0.33 11 0.66 11 1 C7.7 1 4.4 1 1 1 C1.165 1.680625 1.33 2.36125 1.5 3.0625 C2.07713342 6.45315882 2.19434889 9.56650292 2 13 C1.34 13.66 0.68 14.32 0 15 C-0.19448477 12.87562788 -0.38038289 10.75046809 -0.5625 8.625 C-0.66691406 7.44164063 -0.77132812 6.25828125 -0.87890625 5.0390625 C-1 2 -1 2 0 0 Z " fill="#A5B0A5" transform="translate(98,89)"/>
<path d="M0 0 C5.01113235 1.4317521 6.94469549 3.98445693 10 8 C9.67 8.66 9.34 9.32 9 10 C8.34 9.67 7.68 9.34 7 9 C7 11.97 7 14.94 7 18 C6.67 18 6.34 18 6 18 C5.98582031 17.28714844 5.97164062 16.57429688 5.95703125 15.83984375 C5.61324596 8.93626349 4.53804232 5.23620268 0 0 Z " fill="#5F7667" transform="translate(145,18)"/>
<path d="M0 0 C1.65 0 3.3 0 5 0 C5.38218767 1.65614657 5.71395102 3.32457024 6 5 C5 6 5 6 2.4375 6.0625 C1.2309375 6.0315625 1.2309375 6.0315625 0 6 C0 4.02 0 2.04 0 0 Z " fill="#ECEEEB" transform="translate(170,243)"/>
<path d="M0 0 C3.3 0 6.6 0 10 0 C9.67 0.99 9.34 1.98 9 3 C9 2.34 9 1.68 9 1 C6.36 1 3.72 1 1 1 C1.99 2.65 2.98 4.3 4 6 C2.3125 6.75 2.3125 6.75 0 7 C-2.75 5.0625 -2.75 5.0625 -5 3 C-4.67 2.34 -4.34 1.68 -4 1 C-2.68 1.99 -1.36 2.98 0 4 C0 2.68 0 1.36 0 0 Z " fill="#EBEEEC" transform="translate(114,117)"/>
<path d="M0 0 C1.32 0.66 2.64 1.32 4 2 C4 3.65 4 5.3 4 7 C1.69 7 -0.62 7 -3 7 C-1.125 1.125 -1.125 1.125 0 0 Z " fill="#345B3F" transform="translate(118,102)"/>
<path d="M0 0 C0.66 0.66 1.32 1.32 2 2 C2.53625 1.649375 3.0725 1.29875 3.625 0.9375 C6.73274763 -0.28924249 8.79431703 0.27143569 12 1 C12 1.33 12 1.66 12 2 C10.02 2 8.04 2 6 2 C5.67 4.31 5.34 6.62 5 9 C4.67 9 4.34 9 4 9 C3.67 7.35 3.34 5.7 3 4 C1.02 4.99 1.02 4.99 -1 6 C-1.042721 4.33388095 -1.04063832 2.66617115 -1 1 C-0.67 0.67 -0.34 0.34 0 0 Z " fill="#F4F6F5" transform="translate(109,106)"/>
<path d="M0 0 C0.66 0.33 1.32 0.66 2 1 C1.04270084 2.12588014 0.08412105 3.2506715 -0.875 4.375 C-1.40867187 5.00148438 -1.94234375 5.62796875 -2.4921875 6.2734375 C-3.61432007 7.55836651 -4.79371975 8.79371975 -6 10 C-7.32 9.34 -8.64 8.68 -10 8 C-9.34 6.35 -8.68 4.7 -8 3 C-7.67 3.99 -7.34 4.98 -7 6 C-4.69 4.02 -2.38 2.04 0 0 Z " fill="#66806E" transform="translate(98,46)"/>
<path d="M0 0 C0.66 0.66 1.32 1.32 2 2 C1.69903201 6.13830989 1.32101984 8.51847024 -1 12 C-1.66 11.67 -2.32 11.34 -3 11 C-2.67 7.7 -2.34 4.4 -2 1 C-1.34 1.99 -0.68 2.98 0 4 C0 2.68 0 1.36 0 0 Z " fill="#9DAC9D" transform="translate(172,105)"/>
<path d="M0 0 C2.0625 0.4375 2.0625 0.4375 4 1 C4.33 2.32 4.66 3.64 5 5 C2.69 5 0.38 5 -2 5 C-1.125 1.125 -1.125 1.125 0 0 Z " fill="#809886" transform="translate(125,99)"/>
<path d="M0 0 C1.65 0 3.3 0 5 0 C5.5625 1.9375 5.5625 1.9375 6 4 C5 5 5 5 2.4375 5.0625 C1.2309375 5.0315625 1.2309375 5.0315625 0 5 C0 3.35 0 1.7 0 0 Z " fill="#F5F6F5" transform="translate(98,243)"/>
<path d="M0 0 C2.31 0 4.62 0 7 0 C7 1.32 7 2.64 7 4 C4.69 4 2.38 4 0 4 C0 2.68 0 1.36 0 0 Z " fill="#FEFEFE" transform="translate(123,104)"/>
<path d="M0 0 C0.33 0 0.66 0 1 0 C1.06058594 0.74765625 1.12117187 1.4953125 1.18359375 2.265625 C1.26738281 3.25046875 1.35117188 4.2353125 1.4375 5.25 C1.51871094 6.22453125 1.59992188 7.1990625 1.68359375 8.203125 C1.95074584 10.56461753 2.35371968 12.71901065 3 15 C2.01 15 1.02 15 0 15 C0 13.68 0 12.36 0 11 C-1.32 11.33 -2.64 11.66 -4 12 C-3.67 11.34 -3.34 10.68 -3 10 C-2.01 10 -1.02 10 0 10 C0 6.7 0 3.4 0 0 Z " fill="#94A293" transform="translate(169,152)"/>
<path d="M0 0 C1.32 0.33 2.64 0.66 4 1 C3.01 1.66 2.02 2.32 1 3 C3.64 3.33 6.28 3.66 9 4 C8.67 4.66 8.34 5.32 8 6 C4.04 6 0.08 6 -4 6 C-2.68 4.02 -1.36 2.04 0 0 Z " fill="#C9D6CE" transform="translate(212,181)"/>
<path d="M0 0 C0.33 0 0.66 0 1 0 C1.33 3.3 1.66 6.6 2 10 C2.99 10 3.98 10 5 10 C5.33 11.32 5.66 12.64 6 14 C3.03 13.505 3.03 13.505 0 13 C0 8.71 0 4.42 0 0 Z " fill="#526E5B" transform="translate(60,71)"/>
<path d="M0 0 C3.96 0 7.92 0 12 0 C12 1.32 12 2.64 12 4 C10.35 4 8.7 4 7 4 C7 3.01 7 2.02 7 1 C4.69 1 2.38 1 0 1 C0 0.67 0 0.34 0 0 Z " fill="#496950" transform="translate(157,163)"/>
<path d="M0 0 C0 2.64 0 5.28 0 8 C-0.33 8 -0.66 8 -1 8 C-1.33 6.35 -1.66 4.7 -2 3 C-4.97 5.475 -4.97 5.475 -8 8 C-6.65580512 3.85539913 -4.87800266 0 0 0 Z " fill="#617A69" transform="translate(193,184)"/>
<path d="M0 0 C0.66 0.99 1.32 1.98 2 3 C0.37660195 4.70884005 -1.29319053 6.37446717 -3 8 C-3.66 8 -4.32 8 -5 8 C-4.45773019 4.20411134 -2.79872437 2.52788007 0 0 Z " fill="#5D7C64" transform="translate(155,117)"/>
<path d="M0 0 C2.31 0 4.62 0 7 0 C7.33 0.66 7.66 1.32 8 2 C4.25 5 4.25 5 2 5 C2 4.01 2 3.02 2 2 C1.34 2 0.68 2 0 2 C0 1.34 0 0.68 0 0 Z " fill="#2F573A" transform="translate(123,111)"/>
<path d="M0 0 C2.93706939 2.78248679 5.43415863 5.87938211 8 9 C7.34 9 6.68 9 6 9 C5.67 9.66 5.34 10.32 5 11 C4.15841464 9.73461631 3.32700252 8.46246221 2.5 7.1875 C1.80390625 6.12595703 1.80390625 6.12595703 1.09375 5.04296875 C0 3 0 3 0 0 Z " fill="#5C7364" transform="translate(121,37)"/>
<path d="M0 0 C1.9451 2.91765 2.45276317 4.62537285 3 8 C2.34 8 1.68 8 1 8 C0.67 9.32 0.34 10.64 0 12 C-1.16063604 7.74433453 -0.76173392 4.3164922 0 0 Z " fill="#536F5C" transform="translate(223,91)"/>
<path d="M0 0 C2.6875 0.3125 2.6875 0.3125 5 1 C4.67 1.99 4.34 2.98 4 4 C4.99 4 5.98 4 7 4 C6.67 4.66 6.34 5.32 6 6 C3.03 5.01 0.06 4.02 -3 3 C-2.01 2.01 -1.02 1.02 0 0 Z " fill="#5E7967" transform="translate(127,211)"/>
<path d="M0 0 C1.32 0.33 2.64 0.66 4 1 C4 1.99 4 2.98 4 4 C3.01 4 2.02 4 1 4 C0.67 4.99 0.34 5.98 0 7 C-0.66 6.01 -1.32 5.02 -2 4 C-1.34 2.68 -0.68 1.36 0 0 Z " fill="#65806E" transform="translate(53,150)"/>
<path d="M0 0 C-0.33 0.99 -0.66 1.98 -1 3 C-2.65 3.33 -4.3 3.66 -6 4 C-6 3.34 -6 2.68 -6 2 C-6.66 2 -7.32 2 -8 2 C-7.67 1.34 -7.34 0.68 -7 0 C-2.52459016 -1.26229508 -2.52459016 -1.26229508 0 0 Z " fill="#45624F" transform="translate(181,204)"/>
<path d="M0 0 C0 2.31 0 4.62 0 7 C-1.32 6.34 -2.64 5.68 -4 5 C-3.625 3.0625 -3.625 3.0625 -3 1 C-1 0 -1 0 0 0 Z " fill="#204E30" transform="translate(113,109)"/>
<path d="M0 0 C1.32 0.33 2.64 0.66 4 1 C3.34 1.433125 2.68 1.86625 2 2.3125 C1.34 2.869375 0.68 3.42625 0 4 C0 4.99 0 5.98 0 7 C-0.99 7.33 -1.98 7.66 -3 8 C-2.45276317 4.62537285 -1.9451 2.91765 0 0 Z " fill="#D0DDD6" transform="translate(59,93)"/>
<path d="M0 0 C0.66 0 1.32 0 2 0 C2 3.63 2 7.26 2 11 C1.67 11 1.34 11 1 11 C0.67 8.69 0.34 6.38 0 4 C-0.99 4.495 -0.99 4.495 -2 5 C-1.125 1.125 -1.125 1.125 0 0 Z " fill="#48614F" transform="translate(237,107)"/>
<path d="M0 0 C1.98 0 3.96 0 6 0 C5.67 1.32 5.34 2.64 5 4 C3.0625 3.6875 3.0625 3.6875 1 3 C0.67 2.01 0.34 1.02 0 0 Z " fill="#174829" transform="translate(116,119)"/>
<path d="M0 0 C-2 2 -2 2 -4.625 2.125 C-5.40875 2.08375 -6.1925 2.0425 -7 2 C-7.33 2.66 -7.66 3.32 -8 4 C-8 2.68 -8 1.36 -8 0 C-4.71303767 -0.79953138 -3.28976808 -1.09658936 0 0 Z " fill="#E0E4E0" transform="translate(120,149)"/>
</svg>
